<?xml version="1.0" standalone="no"?>
<!DOCTYPE svg PUBLIC "-//W3C//DTD SVG 1.1//EN" "http://www.w3.org/Graphics/SVG/1.1/DTD/svg11.dtd">
<svg width="22mm" height="11mm" viewBox="0 -10 22 11" xmlns="http://www.w3.org/2000/svg" version="1.1">
<title>OpenSCAD Model</title>
<path d="
M 3.71864,0.0857849 L 4.26877,-0.0635986 L 4.74939,-0.312592 L 5.16049,-0.661194 L 5.48984,-1.09668 L 5.7251,-1.60632
 L 5.86624,-2.19012 L 5.9133,-2.8481 L 5.9133,-9.55479 L 2.78709,-9.55479 L 2.78709,-8.49689 L 4.62479,-8.49689
 L 4.62479,-2.821 L 4.59937,-2.38127 L 4.52307,-1.99792 L 4.3959,-1.67093 L 4.2179,-1.4003 L 3.99583,-1.18819
 L 3.73647,-1.0367 L 3.43979,-0.945786 L 3.10579,-0.915497 L 2.79726,-0.943039 L 2.51584,-1.02567 L 2.26155,-1.16339
 L 2.03439,-1.35619 L 1.83986,-1.59821 L 1.68347,-1.88347 L 1.56522,-2.21196 L 1.48509,-2.58369 L 0.216995,-2.3734
 L 0.567474,-1.27571 L 1.16464,-0.491638 L 2.00848,-0.0212097 L 3.099,0.13559 z
M 11.3722,0.0766754 L 12.0355,-0.100037 L 12.603,-0.394608 L 13.0747,-0.806992 L 13.4456,-1.33974 L 13.7105,-1.99539
 L 13.8694,-2.77394 L 13.9224,-3.6754 L 13.8728,-4.58475 L 13.7241,-5.36652 L 13.4761,-6.02071 L 13.1289,-6.54729
 L 12.6767,-6.95224 L 12.1134,-7.24149 L 11.4392,-7.41504 L 10.6538,-7.47289 L 9.21494,-7.23555 L 8.18715,-6.52351
 L 7.57048,-5.33679 L 7.36493,-3.6754 L 7.41621,-2.80424 L 7.57005,-2.04202 L 7.82646,-1.3887 L 8.18542,-0.844299
 L 8.64488,-0.415588 L 9.20265,-0.109375 L 9.85873,0.0743561 L 10.6131,0.13559 z
M 10.128,-0.811859 L 9.72391,-0.948547 L 9.38718,-1.17636 L 9.11783,-1.49529 L 8.91164,-1.90492 L 8.76436,-2.40482
 L 8.67598,-2.99498 L 8.64653,-3.6754 L 8.67641,-4.37196 L 8.76605,-4.96977 L 8.91547,-5.46881 L 9.12463,-5.86909
 L 9.40076,-6.17618 L 9.75105,-6.39552 L 10.1755,-6.52713 L 10.6741,-6.571 L 11.1681,-6.52797 L 11.5854,-6.39891
 L 11.9259,-6.18382 L 12.1897,-5.88269 L 12.387,-5.48662 L 12.528,-4.98672 L 12.6125,-4.38298 L 12.6407,-3.6754
 L 12.6113,-2.97568 L 12.5229,-2.37512 L 12.3756,-1.87372 L 12.1694,-1.4715 L 11.8946,-1.16296 L 11.5413,-0.942596
 L 11.1096,-0.810364 L 10.5995,-0.766296 z
M 19.3063,0.0270996 L 20.1586,-0.298386 L 20.8015,-0.840897 L 21.2351,-1.60039 L 20.1637,-1.90549 L 20.0596,-1.67198
 L 19.917,-1.45964 L 19.7358,-1.26848 L 19.516,-1.0985 L 19.2573,-0.959061 L 18.9591,-0.859467 L 18.6216,-0.799713
 L 18.2446,-0.779785 L 17.7728,-0.822601 L 17.3613,-0.951019 L 17.0099,-1.16505 L 16.7187,-1.46469 L 16.4903,-1.84322
 L 16.3271,-2.29376 L 16.2292,-2.81636 L 16.1966,-3.411 L 21.4318,-3.411 L 21.4318,-3.5737 L 21.2296,-5.27959
 L 20.6231,-6.49809 L 19.6123,-7.22919 L 18.1971,-7.47289 L 17.4527,-7.41229 L 16.7993,-7.23047 L 16.2371,-6.92743
 L 15.766,-6.50319 L 15.3937,-5.96536 L 15.1277,-5.32156 L 14.9682,-4.57181 L 14.915,-3.71609 L 14.9682,-2.81885
 L 15.1277,-2.03944 L 15.3937,-1.37785 L 15.766,-0.834091 L 16.2401,-0.409851 L 16.8112,-0.106812 L 17.4794,0.0749817
 L 18.2446,0.13559 z
M 16.2102,-4.34679 L 16.2604,-4.83778 L 16.3704,-5.27324 L 16.5401,-5.65318 L 16.7696,-5.97758 L 17.0521,-6.2372
 L 17.3808,-6.42264 L 17.7557,-6.53391 L 18.1768,-6.571 L 18.6078,-6.53772 L 18.9854,-6.43791 L 19.3096,-6.27158
 L 19.5804,-6.0387 L 19.8004,-5.73334 L 19.972,-5.34956 L 20.0954,-4.88739 L 20.1704,-4.34679 z
" stroke="black" fill="lightgray" stroke-width="0.5"/>
</svg>
